<?xml version="1.0" standalone="no"?>
<!DOCTYPE svg PUBLIC "-//W3C//DTD SVG 20010904//EN"
 "http://www.w3.org/TR/2001/REC-SVG-20010904/DTD/svg10.dtd">
<svg version="1.0" xmlns="http://www.w3.org/2000/svg"
 width="709.000000pt" height="709.000000pt" viewBox="0 0 709.000000 709.000000"
 preserveAspectRatio="xMidYMid meet">
<metadata>
Created by potrace 1.14, written by Peter Selinger 2001-2017
</metadata>
<g transform="translate(0.000000,709.000000) scale(0.100000,-0.100000)"
fill="#000000" stroke="none">
<path d="M1605 6958 c-87 -16 -206 -81 -277 -151 -81 -79 -146 -192 -164 -282
-2 -11 -5 -29 -8 -40 -2 -11 -5 -49 -5 -85 l-1 -66 -322 -1 c-178 -1 -338 -3
-357 -4 -45 -3 -152 -42 -210 -76 -44 -26 -161 -133 -161 -148 0 -4 -9 -18
-19 -31 -11 -14 -32 -57 -48 -97 l-28 -72 0 -2680 0 -2680 27 -68 c68 -168
184 -277 362 -337 59 -20 81 -20 3165 -18 l3106 3 60 24 c175 70 299 203 344
369 l21 79 0 2653 c0 1459 -4 2658 -9 2664 -5 6 -16 34 -25 61 -56 172 -240
325 -423 351 -26 4 -193 7 -370 8 l-323 1 -1 60 c0 33 -2 67 -4 75 -1 8 -5 29
-8 45 -17 100 -86 220 -175 302 -70 65 -196 133 -257 138 -5 0 -15 3 -21 7 -5
4 -59 6 -120 4 -85 -2 -123 -8 -174 -26 -172 -63 -295 -184 -360 -355 -15 -39
-20 -72 -28 -170 l-7 -80 -1242 0 -1243 0 -1 60 c-1 91 -6 119 -29 185 -29 81
-40 101 -93 170 -132 170 -351 250 -572 208z m225 -352 c60 -31 108 -93 124
-160 9 -36 9 -425 0 -474 -8 -50 -47 -115 -81 -138 -41 -27 -73 -44 -73 -37 0
3 -6 1 -12 -4 -44 -32 -168 -1 -226 57 -67 67 -72 98 -69 375 l2 240 28 47
c23 40 117 122 117 103 0 -3 8 -2 18 4 26 15 133 7 172 -13z m3658 -13 c28
-17 58 -48 77 -77 l30 -49 1 -256 c1 -254 1 -256 -24 -301 -44 -80 -105 -120
-194 -125 -87 -5 -150 26 -215 108 -29 37 -34 95 -31 337 3 269 3 266 71 333
75 74 194 87 285 30z m-4345 -603 c3 -3 8 -21 11 -40 28 -174 101 -297 234
-399 56 -44 161 -87 244 -101 315 -55 621 173 664 495 3 22 8 42 10 45 10 10
2477 5 2480 -5 1 -5 5 -28 8 -50 15 -112 75 -233 157 -315 51 -51 132 -115
151 -119 4 -1 27 -10 50 -20 56 -23 106 -33 193 -37 62 -2 93 1 184 20 33 7
109 44 161 80 92 62 162 151 209 264 15 37 28 70 29 75 0 4 4 31 7 60 l7 52
327 -1 c361 -1 357 -1 424 -68 56 -56 58 -76 55 -556 l-3 -435 -3198 0 c-1759
0 -3201 3 -3203 7 -3 4 -5 205 -5 445 0 479 0 481 59 542 37 38 69 54 122 61
55 6 617 6 623 0z m5585 -1399 l22 -1 0 -1987 c-1 -1628 -4 -1993 -14 -2018
-18 -40 -73 -95 -113 -111 -27 -12 -541 -14 -3078 -14 l-3046 0 -41 21 c-23
12 -47 26 -53 33 -24 25 -52 72 -59 98 -4 20 -11 3771 -7 3958 l1 25 3183 -1
c1750 -1 3192 -2 3205 -3z"/>
<path d="M2909 4056 c-2 -3 -33 -7 -69 -11 -78 -7 -131 -13 -185 -20 -22 -3
-58 -8 -80 -11 -40 -4 -106 -14 -135 -19 -8 -1 -34 -6 -57 -10 -51 -8 -51 -8
-38 -116 l7 -55 -149 -43 c-263 -76 -520 -188 -716 -313 -45 -29 -86 -56 -92
-60 -5 -5 -29 -23 -52 -41 -100 -77 -142 -116 -208 -190 -85 -94 -119 -145
-178 -260 -25 -48 -50 -93 -55 -100 -7 -8 -56 -12 -162 -11 -83 0 -153 -3
-156 -7 -5 -8 67 -194 97 -251 5 -10 9 -26 9 -37 0 -39 20 -43 237 -43 115 0
217 1 228 1 19 1 20 7 19 101 -1 55 2 103 7 106 5 3 7 9 4 14 -3 4 1 23 9 41
8 19 14 36 14 39 -2 13 55 120 86 164 48 68 157 177 246 247 41 33 80 64 87
69 7 6 16 10 22 10 5 0 11 4 13 8 7 19 257 152 284 152 8 0 14 5 14 10 0 6 6
10 14 10 8 0 41 11 73 24 50 20 218 76 248 82 6 1 57 13 115 27 122 29 153 36
197 41 18 3 40 7 50 10 10 3 45 8 78 11 33 4 74 9 90 11 50 8 697 10 781 3 97
-9 171 -17 204 -24 14 -3 40 -8 59 -11 18 -3 43 -8 55 -10 11 -3 32 -7 46 -10
368 -70 749 -234 985 -423 256 -205 382 -463 340 -693 -3 -16 -7 -38 -9 -50
-11 -57 -76 -197 -110 -235 -6 -7 -33 -39 -61 -71 -27 -32 -74 -78 -104 -103
-29 -24 -59 -49 -65 -55 -42 -40 -383 -234 -411 -234 -3 0 -22 -7 -43 -15
-129 -55 -503 -162 -522 -150 -5 3 -11 1 -14 -4 -3 -4 -29 -12 -58 -16 -29 -5
-55 -9 -58 -10 -3 0 -32 -5 -65 -9 -32 -4 -68 -10 -80 -12 -62 -12 -210 -18
-450 -18 -289 0 -415 8 -540 31 -16 3 -37 5 -45 5 -8 0 -31 4 -50 9 -19 4 -51
11 -70 14 -19 3 -53 11 -75 17 -22 6 -49 13 -60 15 -43 7 -101 21 -125 30 -8
4 -19 7 -25 7 -5 1 -57 14 -114 31 l-103 29 -67 -70 c-142 -151 -147 -158
-108 -167 12 -3 58 -19 102 -36 44 -17 87 -33 95 -34 8 -2 60 -17 115 -34 87
-27 126 -38 170 -48 54 -13 176 -38 200 -41 16 -2 37 -6 45 -9 8 -2 42 -7 75
-10 33 -3 68 -8 77 -11 10 -3 41 -7 70 -9 29 -3 78 -7 108 -10 30 -3 91 -8
134 -11 44 -3 83 -7 87 -9 6 -4 24 -102 21 -117 -1 -4 2 -18 7 -30 7 -20 15
-23 47 -21 77 6 162 5 172 0 5 -4 12 -3 16 0 4 4 35 8 69 9 173 5 359 20 462
35 39 6 87 12 109 14 35 4 111 17 176 30 14 3 39 8 55 10 17 3 56 12 88 20 32
8 71 17 87 20 44 8 322 92 381 116 30 12 59 22 64 23 6 1 57 21 115 46 144 60
329 157 451 235 99 64 113 75 147 105 10 8 36 30 60 48 146 116 285 289 358
448 33 71 74 207 74 245 0 10 5 21 12 25 6 4 125 8 264 8 139 1 255 4 259 8 8
8 12 88 5 88 -4 0 -4 15 -2 33 l4 34 -260 0 c-143 0 -264 3 -269 6 -6 4 -13
26 -17 49 -25 156 -121 360 -231 488 -81 95 -228 233 -300 280 -37 25 -76 54
-90 68 -8 6 -17 12 -21 12 -4 0 -22 11 -41 26 -18 14 -33 22 -33 18 0 -4 -8 0
-17 8 -40 34 -406 211 -463 223 -8 2 -59 20 -114 39 -54 20 -108 38 -120 40
-11 3 -52 14 -91 26 -38 13 -83 25 -100 27 -16 3 -38 9 -47 14 -10 5 -18 8
-18 5 0 -3 -15 0 -32 5 -18 6 -42 12 -53 13 -18 3 -36 7 -100 20 -65 13 -196
36 -235 41 -25 3 -61 7 -80 10 -71 10 -147 17 -225 22 -106 6 -771 14 -776 9z"/>
<path d="M3052 2751 c-178 -61 -247 -131 -239 -244 2 -37 10 -67 24 -85 32
-44 113 -100 178 -123 33 -11 67 -23 75 -26 54 -20 303 -21 380 -3 116 27 228
98 263 166 l16 31 148 1 c81 1 156 1 166 1 14 1 17 11 17 56 l0 55 -32 1
c-268 5 -302 7 -306 18 -13 40 -119 117 -201 146 -72 25 -90 27 -251 31 -149
3 -158 2 -238 -25z"/>
</g>
</svg>
