<svg version="1.1" id="Cloakinghud_xA0_Image_1_" xmlns="http://www.w3.org/2000/svg" xmlns:xlink="http://www.w3.org/1999/xlink" x="0px" y="0px" width="1045px" height="820px" viewBox="0 0 1045 820" xml:space="preserve">
<g>
	<g>
		<path id="background-square" fill-rule="evenodd" clip-rule="evenodd" fill="transparent" d="M2,1c347.333,0,694.664,0,1042,0c0,272.666,0,545.337,0,818    c-347.679,0-695.314,0-1043,0C1,547.325,1,275.679,1,4C0.914,2.581,0.835,1.168,2,1z M520,21    c-81.623,128.886-167.197,257.526-249,388C192.42,534.332,110.969,659.024,32,782c-2.023,3.15-6.697,6.479-5,11    c329.334,0,658.667,0,988,0C852.541,537.101,685.242,277.435,520,21z"/>
		<path id="triangle" fill-rule="evenodd" clip-rule="evenodd" fill="currentColor" d="M1015,793c-329.333,0-658.666,0-988,0c-1.697-4.521,2.977-7.85,5-11    c78.969-122.976,160.42-247.668,239-373c81.803-130.474,167.377-259.114,249-388C685.242,277.435,852.541,537.101,1015,793z     M267,539c38.167,62.167,93.703,106.964,176,125c-38.327-30.138-73.269-69.6-68-138c3.682-47.79,30.783-82.745,60-104    c4.157-3.023,12.119-6.908,10-10C361.402,430.068,303.558,473.892,267,539z M644,463c11.841,19.428,21.213,45.521,21,77    c-0.343,50.725-27.047,91.266-56,114c-4.48,3.519-12.514,5.642-11,10c82.443-17.891,138.426-62.24,175-126    c-38.662-63.34-95.635-108.364-180-126C611.943,427.689,630.915,441.529,644,463z M476,586c35.758,33.355,107.902,12.718,107-48    c-0.521-35.052-31.205-67.471-74-61C458.483,484.639,436.9,549.526,476,586z"/>
		<path id="left-eye" fill-rule="evenodd" clip-rule="evenodd" fill="transparent" d="M445,412c2.119,3.092-5.843,6.977-10,10    c-29.217,21.255-56.318,56.21-60,104c-5.269,68.4,29.673,107.862,68,138c-82.297-18.036-137.833-62.833-176-125    C303.558,473.892,361.402,430.068,445,412z"/>
		<path id="right-eye" fill-rule="evenodd" clip-rule="evenodd" fill="transparent" d="M593,412c84.365,17.636,141.338,62.66,180,126    c-36.574,63.76-92.557,108.109-175,126c-1.514-4.358,6.52-6.481,11-10c28.953-22.734,55.657-63.275,56-114    c0.213-31.479-9.159-57.572-21-77C630.915,441.529,611.943,427.689,593,412z"/>
		<path id="circle" fill-rule="evenodd" clip-rule="evenodd" fill="transparent" d="M509,477c42.795-6.471,73.479,25.948,74,61    c0.902,60.718-71.242,81.355-107,48C436.9,549.526,458.483,484.639,509,477z"/>
	</g>
</g>
</svg>