<svg
   xmlns:dc="http://purl.org/dc/elements/1.1/"
   xmlns:cc="http://creativecommons.org/ns#"
   xmlns:rdf="http://www.w3.org/1999/02/22-rdf-syntax-ns#"
   xmlns:svg="http://www.w3.org/2000/svg"
   xmlns="http://www.w3.org/2000/svg"
   xmlns:sodipodi="http://sodipodi.sourceforge.net/DTD/sodipodi-0.dtd"
   xmlns:inkscape="http://www.inkscape.org/namespaces/inkscape"
   width="532.00201pt"
   height="514.1734pt"
   version="1.1"
   viewBox="0 0 532.00201 514.1734"
   id="svg1091"
   sodipodi:docname="halo-calendar.svg"
   inkscape:version="0.92.3 (2405546, 2018-03-11)">
  
  <defs
     id="defs1019">
    <symbol
       id="u"
       overflow="visible"
       style="overflow:visible">
      <path
         d="m 18.766,-1.125 c -0.96875,0.5 -1.9805,0.875 -3.0312,1.125 -1.043,0.25781 -2.1367,0.39062 -3.2812,0.39062 -3.3984,0 -6.0898,-0.94531 -8.0781,-2.8438 -1.9922,-1.9062 -2.9844,-4.4844 -2.9844,-7.7344 0,-3.2578 0.99219,-5.8359 2.9844,-7.7344 1.9883,-1.9062 4.6797,-2.8594 8.0781,-2.8594 1.1445,0 2.2383,0.13281 3.2812,0.39062 1.0508,0.25 2.0625,0.625 3.0312,1.125 v 4.2188 c -0.98047,-0.65625 -1.9453,-1.1406 -2.8906,-1.4531 -0.94922,-0.3125 -1.9492,-0.46875 -3,-0.46875 -1.875,0 -3.3516,0.60547 -4.4219,1.8125 -1.0742,1.1992 -1.6094,2.8555 -1.6094,4.9688 0,2.1055 0.53516,3.7617 1.6094,4.9688 1.0703,1.1992 2.5469,1.7969 4.4219,1.7969 1.0508,0 2.0508,-0.14844 3,-0.45312 0.94531,-0.3125 1.9102,-0.80078 2.8906,-1.4688 z"
         id="path956"
         inkscape:connector-curvature="0" />
    </symbol>
    <symbol
       id="d"
       overflow="visible"
       style="overflow:visible">
      <path
         d="m 13.734,-11.141 c -0.4375,-0.19531 -0.87109,-0.34375 -1.2969,-0.4375 -0.41797,-0.10156 -0.83984,-0.15625 -1.2656,-0.15625 -1.2617,0 -2.2305,0.40625 -2.9062,1.2188 -0.67969,0.80469 -1.0156,1.9531 -1.0156,3.4531 v 7.0625 H 2.3591 v -15.312 h 4.8906 v 2.5156 c 0.625,-1 1.3438,-1.7266 2.1562,-2.1875 0.82031,-0.46875 1.8008,-0.70312 2.9375,-0.70312 0.16406,0 0.34375,0.01172 0.53125,0.03125 0.19531,0.01172 0.47656,0.03906 0.84375,0.07813 z"
         id="path959"
         inkscape:connector-curvature="0" />
    </symbol>
    <symbol
       id="b"
       overflow="visible"
       style="overflow:visible">
      <path
         d="m 17.641,-7.7031 v 1.4062 H 6.188 c 0.125,1.1484 0.53906,2.0078 1.25,2.5781 0.70703,0.57422 1.7031,0.85938 2.9844,0.85938 1.0312,0 2.082,-0.14844 3.1562,-0.45312 1.082,-0.3125 2.1914,-0.77344 3.3281,-1.3906 v 3.7656 c -1.1562,0.4375 -2.3125,0.76562 -3.4688,0.98438 -1.1562,0.22656 -2.3125,0.34375 -3.4688,0.34375 -2.7734,0 -4.9297,-0.70312 -6.4688,-2.1094 -1.5312,-1.4062 -2.2969,-3.3789 -2.2969,-5.9219 0,-2.5 0.75391,-4.4609 2.2656,-5.8906 1.5078,-1.4375 3.582,-2.1562 6.2188,-2.1562 2.4062,0 4.332,0.73047 5.7812,2.1875 1.4453,1.4492 2.1719,3.3828 2.1719,5.7969 z m -5.0312,-1.625 c 0,-0.92578 -0.27344,-1.6719 -0.8125,-2.2344 -0.54297,-0.57031 -1.25,-0.85938 -2.125,-0.85938 -0.94922,0 -1.7188,0.26562 -2.3125,0.79688 -0.5937,0.53126 -0.96484,1.2969 -1.1094,2.2969 z"
         id="path962"
         inkscape:connector-curvature="0" />
    </symbol>
    <symbol
       id="j"
       overflow="visible"
       style="overflow:visible">
      <path
         d="m 9.2188,-6.8906 c -1.0234,0 -1.793,0.17188 -2.3125,0.51562 -0.51172,0.34375 -0.76562,0.85547 -0.76562,1.5312 0,0.625 0.20703,1.1172 0.625,1.4688 0.41406,0.34375 0.98828,0.51562 1.7188,0.51562 0.92578,0 1.7031,-0.32812 2.3281,-0.98438 0.63281,-0.66406 0.95312,-1.4922 0.95312,-2.4844 v -0.5625 z m 7.4688,-1.8438 V 0 h -4.9219 v -2.2656 c -0.65625,0.92969 -1.3984,1.6055 -2.2188,2.0312 -0.82422,0.41406 -1.8242,0.625 -3,0.625 -1.5859,0 -2.8711,-0.45703 -3.8594,-1.375 -0.99219,-0.92578 -1.4844,-2.1289 -1.4844,-3.6094 0,-1.7891 0.61328,-3.1016 1.8438,-3.9375 1.2383,-0.84375 3.1797,-1.2656 5.8281,-1.2656 h 2.8906 v -0.39062 c 0,-0.76953 -0.30859,-1.332 -0.92188,-1.6875 -0.61719,-0.36328 -1.5703,-0.54688 -2.8594,-0.54688 -1.0547,0 -2.0312,0.10547 -2.9375,0.3125 -0.89844,0.21094 -1.7305,0.52344 -2.5,0.9375 v -3.7344 c 1.0391,-0.25 2.0859,-0.44141 3.1406,-0.57812 1.0625,-0.13281 2.125,-0.20312 3.1875,-0.20312 2.7578,0 4.75,0.54688 5.9688,1.6406 1.2266,1.0859 1.8438,2.8555 1.8438,5.3125 z"
         id="path965"
         inkscape:connector-curvature="0" />
    </symbol>
    <symbol
       id="c"
       overflow="visible"
       style="overflow:visible">
      <path
         d="m 7.7031,-19.656 v 4.3438 H 12.75 v 3.5 H 7.7031 v 6.5 c 0,0.71094 0.14062,1.1875 0.42188,1.4375 0.28126,0.25 0.83594,0.375 1.6719,0.375 h 2.5156 v 3.5 h -4.1875 c -1.9375,0 -3.3125,-0.39844 -4.125,-1.2031 -0.80469,-0.8125 -1.2031,-2.1797 -1.2031,-4.1094 v -6.5 h -2.4219 v -3.5 h 2.4219 v -4.3438 z"
         id="path968"
         inkscape:connector-curvature="0" />
    </symbol>
    <symbol
       id="i"
       overflow="visible"
       style="overflow:visible">
      <path
         d="m 12.766,-13.078 v -8.2031 h 4.9219 V -10e-5 H 12.766 v -2.2188 c -0.66797,0.90625 -1.4062,1.5703 -2.2188,1.9844 -0.8126,0.4141 -1.7578,0.625 -2.8281,0.625 -1.8867,0 -3.4336,-0.75 -4.6406,-2.25 -1.2109,-1.5 -1.8125,-3.4258 -1.8125,-5.7812 0,-2.3633 0.60156,-4.2969 1.8125,-5.7969 1.207,-1.5 2.7539,-2.25 4.6406,-2.25 1.0625,0 2,0.21484 2.8125,0.64062 0.82031,0.42969 1.5664,1.0859 2.2344,1.9688 z m -3.2188,9.9219 c 1.0391,0 1.8359,-0.37891 2.3906,-1.1406 0.55078,-0.76953 0.82812,-1.8828 0.82812,-3.3438 0,-1.457 -0.27734,-2.5664 -0.82812,-3.3281 -0.55469,-0.76953 -1.3516,-1.1562 -2.3906,-1.1562 -1.043,0 -1.8398,0.38672 -2.3906,1.1562 -0.55469,0.76172 -0.82812,1.8711 -0.82812,3.3281 0,1.4609 0.27344,2.5742 0.82812,3.3438 0.55078,0.76172 1.3477,1.1406 2.3906,1.1406 z"
         id="path971"
         inkscape:connector-curvature="0" />
    </symbol>
    <symbol
       id="h"
       overflow="visible"
       style="overflow:visible">
      <path
         d="m 10.5,-3.1562 c 1.0508,0 1.8516,-0.37891 2.4062,-1.1406 0.55078,-0.76953 0.82812,-1.8828 0.82812,-3.3438 0,-1.457 -0.27734,-2.5664 -0.82812,-3.3281 -0.55469,-0.76953 -1.3555,-1.1562 -2.4062,-1.1562 -1.0547,0 -1.8594,0.38672 -2.4219,1.1562 -0.55469,0.77344 -0.82812,1.8828 -0.82812,3.3281 0,1.4492 0.27344,2.5586 0.82812,3.3281 0.5625,0.77344 1.3672,1.1562 2.4219,1.1562 z m -3.25,-9.9219 c 0.67578,-0.88281 1.4219,-1.5391 2.2344,-1.9688 0.82031,-0.42578 1.7656,-0.64062 2.8281,-0.64062 1.8945,0 3.4453,0.75 4.6562,2.25 1.207,1.5 1.8125,3.4336 1.8125,5.7969 0,2.3555 -0.60547,4.2812 -1.8125,5.7812 -1.2109,1.5 -2.7617,2.25 -4.6562,2.25 -1.0625,0 -2.0078,-0.21094 -2.8281,-0.625 C 8.6719,-0.6602 7.9258,-1.32032 7.25,-2.21882 V -2e-5 H 2.3594 v -21.281 H 7.25 Z"
         id="path974"
         inkscape:connector-curvature="0" />
    </symbol>
    <symbol
       id="g"
       overflow="visible"
       style="overflow:visible">
      <path
         d="m 0.34375,-15.312 h 4.8906 l 4.125,10.391 3.5,-10.391 h 4.8906 l -6.4375,16.766 c -0.64844,1.6953 -1.4023,2.8828 -2.2656,3.5625 -0.86719,0.6875 -2,1.0312 -3.4062,1.0312 H 2.79685 V 2.8289 h 1.5312 c 0.83203,0 1.4375,-0.13672 1.8125,-0.40625 C 6.52336,2.16093 6.82024,1.69218 7.03117,1.01645 L 7.17179,0.59457 Z"
         id="path977"
         inkscape:connector-curvature="0" />
    </symbol>
    <symbol
       id="f"
       overflow="visible"
       style="overflow:visible">
      <path
         d="m 0.42188,-15.312 h 4.8906 l 3.8281,10.578 3.7969,-10.578 h 4.9062 L 11.81248,0 h -5.375 z"
         id="path980"
         inkscape:connector-curvature="0" />
    </symbol>
    <symbol
       id="a"
       overflow="visible"
       style="overflow:visible">
      <path
         d="m 9.6406,-12.188 c -1.0859,0 -1.9141,0.39062 -2.4844,1.1719 -0.57422,0.78125 -0.85938,1.9062 -0.85938,3.375 0,1.4688 0.28516,2.5938 0.85938,3.375 0.57031,0.77344 1.3984,1.1562 2.4844,1.1562 1.0625,0 1.875,-0.38281 2.4375,-1.1562 0.57031,-0.78125 0.85938,-1.9062 0.85938,-3.375 0,-1.4688 -0.28906,-2.5938 -0.85938,-3.375 -0.5625,-0.78125 -1.375,-1.1719 -2.4375,-1.1719 z m 0,-3.5 c 2.6328,0 4.6914,0.71484 6.1719,2.1406 1.4766,1.418 2.2188,3.3867 2.2188,5.9062 0,2.5117 -0.74219,4.4805 -2.2188,5.9062 C 14.332,-0.317 12.2734,0.39 9.6406,0.39 6.9922,0.39 4.9258,-0.31703 3.4375,-1.735 1.9453,-3.1608 1.2031,-5.1295 1.2031,-7.6412 c 0,-2.5195 0.74219,-4.4883 2.2344,-5.9062 1.4883,-1.4258 3.5547,-2.1406 6.2031,-2.1406 z"
         id="path983"
         inkscape:connector-curvature="0" />
    </symbol>
    <symbol
       id="t"
       overflow="visible"
       style="overflow:visible">
      <path
         d="M 2.3594,-21.281 H 7.25 V 0 H 2.3594 Z"
         id="path986"
         inkscape:connector-curvature="0" />
    </symbol>
    <symbol
       id="s"
       overflow="visible"
       style="overflow:visible">
      <path
         d="M 2.3594,-21.281 H 7.25 v 11.594 l 5.625,-5.625 h 5.6875 L 11.0937,-8.2808 19.1562,4e-4 H 13.2187 L 7.2499,-6.3902 V 4e-4 H 2.3593 Z"
         id="path989"
         inkscape:connector-curvature="0" />
    </symbol>
    <symbol
       id="e"
       overflow="visible"
       style="overflow:visible">
      <path
         d="m 16.547,-12.766 c 0.61328,-0.94531 1.3477,-1.6719 2.2031,-2.1719 0.85156,-0.5 1.7891,-0.75 2.8125,-0.75 1.7578,0 3.0977,0.54688 4.0156,1.6406 0.92578,1.0859 1.3906,2.6562 1.3906,4.7188 V -4e-4 h -4.9219 v -7.9844 -0.35938 c 0.0078,-0.13281 0.01563,-0.32031 0.01563,-0.5625 0,-1.082 -0.16406,-1.8633 -0.48438,-2.3438 -0.3125,-0.48828 -0.82422,-0.73438 -1.5312,-0.73438 -0.92969,0 -1.6484,0.38672 -2.1562,1.1562 -0.51172,0.76172 -0.77344,1.8672 -0.78125,3.3125 v 7.5156 h -4.9219 v -7.9844 c 0,-1.6953 -0.14844,-2.7852 -0.4375,-3.2656 -0.29297,-0.48828 -0.8125,-0.73438 -1.5625,-0.73438 -0.9375,0 -1.6641,0.38672 -2.1719,1.1562 -0.51172,0.76172 -0.76562,1.8594 -0.76562,3.2969 v 7.5312 h -4.9219 v -15.312 h 4.9219 v 2.2344 c 0.60156,-0.86328 1.2891,-1.5156 2.0625,-1.9531 0.78125,-0.4375 1.6406,-0.65625 2.5781,-0.65625 1.0625,0 2,0.25781 2.8125,0.76562 0.8125,0.51172 1.4258,1.2305 1.8438,2.1562 z"
         id="path992"
         inkscape:connector-curvature="0" />
    </symbol>
    <symbol
       id="r"
       overflow="visible"
       style="overflow:visible">
      <path
         d="m 12.422,-21.281 v 3.2188 H 9.7189 c -0.6875,0 -1.1719,0.125 -1.4531,0.375 -0.27344,0.25 -0.40625,0.6875 -0.40625,1.3125 v 1.0625 h 4.1875 v 3.5 H 7.85955 V -2e-4 h -4.8906 v -11.812 h -2.4375 v -3.5 h 2.4375 v -1.0625 c 0,-1.6641 0.46094,-2.8984 1.3906,-3.7031 0.92578,-0.80078 2.3672,-1.2031 4.3281,-1.2031 z"
         id="path995"
         inkscape:connector-curvature="0" />
    </symbol>
    <symbol
       id="q"
       overflow="visible"
       style="overflow:visible">
      <path
         d="M 17.75,-9.3281 V 0 h -4.9219 v -7.1094 c 0,-1.3438 -0.03125,-2.2656 -0.09375,-2.7656 -0.0625,-0.5 -0.16797,-0.86719 -0.3125,-1.1094 -0.1875,-0.3125 -0.44922,-0.55469 -0.78125,-0.73438 -0.32422,-0.17578 -0.69531,-0.26562 -1.1094,-0.26562 -1.0234,0 -1.8242,0.39844 -2.4062,1.1875 -0.58594,0.78125 -0.875,1.8711 -0.875,3.2656 V -1e-4 H 2.3594 v -21.281 H 7.25 v 8.2031 c 0.73828,-0.88281 1.5195,-1.5391 2.3438,-1.9688 0.83203,-0.42578 1.75,-0.64062 2.75,-0.64062 1.7695,0 3.1133,0.54688 4.0312,1.6406 0.91406,1.0859 1.375,2.6562 1.375,4.7188 z"
         id="path998"
         inkscape:connector-curvature="0" />
    </symbol>
    <symbol
       id="p"
       overflow="visible"
       style="overflow:visible">
      <path
         d="m 2.5781,-20.406 h 5.875 l 7.4219,14 v -14 h 4.9844 V 0 h -5.875 L 7.5625,-14 V 0 H 2.5781 Z"
         id="path1001"
         inkscape:connector-curvature="0" />
    </symbol>
    <symbol
       id="o"
       overflow="visible"
       style="overflow:visible">
      <path
         d="m 2.1875,-5.9688 v -9.3438 h 4.9219 v 1.5312 c 0,0.83594 -0.00781,1.875 -0.015625,3.125 -0.011719,1.25 -0.015625,2.0859 -0.015625,2.5 0,1.2422 0.03125,2.1328 0.09375,2.6719 0.070313,0.54297 0.17969,0.93359 0.32812,1.1719 0.20703,0.32422 0.47266,0.57422 0.79688,0.75 0.32031,0.16797 0.69141,0.25 1.1094,0.25 1.0195,0 1.8203,-0.39062 2.4062,-1.1719 0.58203,-0.78125 0.875,-1.8672 0.875,-3.2656 v -7.5625 h 4.8906 V -6e-4 H 12.6875 V -2.2194 C 11.94531,-1.32096 11.1641,-0.6608 10.3437,-0.235 9.51948,0.17906 8.6093,0.39 7.6093,0.39 5.8476,0.39 4.5038,-0.14906 3.5781,-1.235 2.64841,-2.317 2.1875,-3.8952 2.1875,-5.9694 Z"
         id="path1004"
         inkscape:connector-curvature="0" />
    </symbol>
    <symbol
       id="n"
       overflow="visible"
       style="overflow:visible">
      <path
         d="M 17.75,-9.3281 V 0 h -4.9219 v -7.1406 c 0,-1.3203 -0.03125,-2.2344 -0.09375,-2.7344 -0.0625,-0.5 -0.16797,-0.86719 -0.3125,-1.1094 -0.1875,-0.3125 -0.44922,-0.55469 -0.78125,-0.73438 -0.32422,-0.17578 -0.69531,-0.26562 -1.1094,-0.26562 -1.0234,0 -1.8242,0.39844 -2.4062,1.1875 -0.58594,0.78125 -0.875,1.8711 -0.875,3.2656 V -1e-4 H 2.3594 v -15.312 H 7.25 v 2.2344 c 0.73828,-0.88281 1.5195,-1.5391 2.3438,-1.9688 0.83203,-0.42578 1.75,-0.64062 2.75,-0.64062 1.7695,0 3.1133,0.54688 4.0312,1.6406 0.91406,1.0859 1.375,2.6562 1.375,4.7188 z"
         id="path1007"
         inkscape:connector-curvature="0" />
    </symbol>
    <symbol
       id="m"
       overflow="visible"
       style="overflow:visible">
      <path
         d="m 2.5781,-20.406 h 8.7344 c 2.5938,0 4.582,0.57812 5.9688,1.7344 1.3945,1.1484 2.0938,2.7891 2.0938,4.9219 0,2.1367 -0.69922,3.7812 -2.0938,4.9375 -1.3867,1.1562 -3.375,1.7344 -5.9688,1.7344 H 7.8281 V 3e-4 h -5.25 z m 5.25,3.8125 v 5.7031 H 10.75 c 1.0195,0 1.8047,-0.25 2.3594,-0.75 0.5625,-0.5 0.84375,-1.2031 0.84375,-2.1094 0,-0.91406 -0.28125,-1.6172 -0.84375,-2.1094 -0.55469,-0.48828 -1.3398,-0.73438 -2.3594,-0.73438 z"
         id="path1010"
         inkscape:connector-curvature="0" />
    </symbol>
    <symbol
       id="l"
       overflow="visible"
       style="overflow:visible">
      <path
         d="M 2.3594,-15.312 H 7.25 v 15.031 c 0,2.0508 -0.49609,3.6172 -1.4844,4.7031 -0.98047,1.082 -2.4062,1.625 -4.2812,1.625 H -0.9375 V 2.8283 h 0.85938 c 0.92578,0 1.5625,-0.21094 1.9062,-0.625 0.35156,-0.41797 0.53125,-1.2461 0.53125,-2.4844 z m 0,-5.9688 H 7.25 v 4 H 2.3594 Z"
         id="path1013"
         inkscape:connector-curvature="0" />
    </symbol>
    <symbol
       id="k"
       overflow="visible"
       style="overflow:visible">
      <path
         d="m 14.719,-14.828 v 3.9844 c -0.65625,-0.45703 -1.3242,-0.79688 -2,-1.0156 -0.66797,-0.21875 -1.3594,-0.32812 -2.0781,-0.32812 -1.3672,0 -2.4336,0.40234 -3.2031,1.2031 -0.76172,0.79297 -1.1406,1.9062 -1.1406,3.3438 0,1.4297 0.37891,2.543 1.1406,3.3438 0.76953,0.79297 1.8359,1.1875 3.2031,1.1875 0.75781,0 1.4844,-0.10938 2.1719,-0.32812 0.6875,-0.22656 1.3203,-0.56641 1.9062,-1.0156 v 4 c -0.76172,0.28125 -1.5391,0.48828 -2.3281,0.625 -0.78125,0.14453 -1.5742,0.21875 -2.375,0.21875 -2.7617,0 -4.9219,-0.70703 -6.4844,-2.125 -1.5547,-1.4141 -2.3281,-3.3828 -2.3281,-5.9062 0,-2.5312 0.77344,-4.5039 2.3281,-5.9219 1.5625,-1.4141 3.7227,-2.125 6.4844,-2.125 0.80078,0 1.5938,0.07422 2.375,0.21875 0.78125,0.13672 1.5547,0.35156 2.3281,0.64062 z"
         id="path1016"
         inkscape:connector-curvature="0" />
    </symbol>
  </defs>
  <g
     id="g1089"
     style="display:inline"
     transform="translate(-84.002,-22.9146)">
    <path
       d="m 575.18,70.766 h -45.508 v -4.6914 c 0,-23.801 -19.359,-43.16 -43.16,-43.16 -23.801,0 -43.16,19.359 -43.16,43.16 v 4.6914 h -186.71 v -4.6914 c 0,-23.801 -19.359,-43.16 -43.16,-43.16 -23.801,0 -43.16,19.359 -43.16,43.16 v 4.6914 h -45.504 c -22.508,0 -40.816,18.312 -40.816,40.816 v 384.69 c 0,22.504 18.309,40.816 40.816,40.816 h 450.37 c 22.504,0 40.816,-18.309 40.816,-40.816 V 111.582 C 616,89.078 597.692,70.766 575.184,70.766 Z M 468.69,66.0746 c 0,-9.832 7.9961,-17.828 17.824,-17.828 9.832,0 17.828,7.9961 17.828,17.828 v 28.406 c 0,9.832 -7.9961,17.828 -17.828,17.828 -9.8281,0 -17.824,-7.9961 -17.824,-17.828 z m -273.04,0 c 0,-9.832 7.9961,-17.828 17.828,-17.828 9.8281,0 17.824,7.9961 17.824,17.828 v 28.406 c 0,9.832 -7.9961,17.828 -17.824,17.828 -9.832,0 -17.828,-7.9961 -17.828,-17.828 z m 395.01,430.2 c 0,8.5391 -6.9453,15.48 -15.48,15.48 l -450.37,0.004 c -8.5352,0 -15.48,-6.9453 -15.48,-15.48 l -0.004,-295.09 h 481.33 z m 0,-320.42 H 109.32 v -64.27 c 0,-8.5391 6.9453,-15.48 15.48,-15.48 h 45.539 c 0.85547,23.051 19.867,41.539 43.125,41.539 23.258,0 42.27,-18.488 43.125,-41.539 h 186.79 c 0.85547,23.051 19.867,41.539 43.125,41.539 23.258,0 42.27,-18.488 43.125,-41.539 h 45.539 c 8.5352,0 15.48,6.9453 15.48,15.48 z"
       id="path1021"
       inkscape:connector-curvature="0" />
  </g>
  <g
     inkscape:groupmode="layer"
     id="layer1"
     inkscape:label="Halo"
     style="display:inline"
     transform="translate(-84.002,-22.9146)">
    <g
       id="g5437">
      <g
         id="g1690"
         transform="matrix(0.08209159,0,0,-0.08483502,120.76339,485.44699)"
         style="display:inline;stroke:none" fill="currentColor">
        <path
           id="path1684"
           d="m 2275,2874 c -235,-18 -561,-59 -583,-73 -6,-4 -5,-31 3,-74 10,-51 10,-69 1,-72 -6,-1 -56,-15 -111,-29 -381,-98 -738,-284 -955,-496 -95,-93 -151,-169 -208,-282 l -44,-88 H 229 c -82,0 -149,-2 -149,-4 0,-2 13,-35 29,-72 16,-38 43,-104 61,-146 l 32,-78 h 211 212 l -3,70 c -5,94 12,165 61,263 33,67 60,101 146,188 228,228 545,380 988,473 241,50 364,61 698,61 330,-1 431,-10 680,-60 717,-144 1205,-511 1205,-903 0,-134 -41,-242 -133,-357 -235,-294 -747,-512 -1372,-585 -248,-29 -622,-22 -885,16 -162,23 -482,100 -581,139 -11,4 -43,-24 -108,-94 l -92,-100 38,-16 c 79,-34 273,-94 393,-124 209,-51 413,-80 666,-96 l 102,-7 12,-76 12,-75 231,6 c 231,6 435,24 617,53 981,157 1710,611 1818,1132 l 17,82 h 242 243 v 70 70 h -243 -244 l -12,67 c -47,255 -239,505 -540,704 -380,252 -924,427 -1532,494 -136,15 -658,28 -774,19 z"
           inkscape:connector-curvature="0" />
        <path
           id="path1688"
           d="m 2435,1741 c -132,-21 -250,-78 -292,-140 -30,-44 -31,-120 -4,-165 36,-57 137,-116 243,-141 81,-19 265,-19 346,0 112,26 205,84 238,148 l 15,27 h 149 150 v 50 50 h -154 c -144,0 -155,1 -161,19 -15,48 -113,109 -220,138 -62,16 -243,25 -310,14 z"
           inkscape:connector-curvature="0" />
      </g>
    </g>
  </g>
  <path
     style="fill-opacity:1;stroke-width:0.52493441;stroke-opacity:1"
     fill="currentColor"
     stroke="currentColor"
     d="M 44.828389,684.41908 C 33.638641,682.39556 22.997601,676.57488 15.026601,668.1174 8.8908161,661.60716 4.0063288,652.71031 1.7907004,644.00884 L 0.59576097,639.31598 V 374.48659 109.65719 L 1.8210332,105.19525 C 4.5155513,95.382912 8.6659132,87.998765 15.443647,80.958482 22.554675,73.571994 29.772142,69.175107 40.01813,65.987679 l 4.672119,-1.453449 35.301837,-0.166 35.301834,-0.165995 0.003,-5.094047 c 0.0103,-17.017706 6.18684,-31.760421 18.01216,-42.993322 27.2998,-25.9321448 71.77165,-18.898561 89.60651,14.171996 4.63001,8.585267 6.3423,15.122092 6.76528,25.827021 l 0.31112,7.874016 H 354.6639 479.33582 l 0.31112,-7.874016 c 0.17112,-4.330708 0.6905,-9.430927 1.15418,-11.333818 5.18452,-21.276522 21.13853,-37.4291936 42.26115,-42.7873858 25.28384,-6.4137767 52.23413,5.8155465 64.38426,29.2158748 4.40273,8.479326 6.57816,17.697266 6.58436,27.899634 l 0.005,5.094047 35.30183,0.165995 35.30184,0.166 4.67213,1.453449 c 9.81212,3.052462 16.20619,6.809443 23.32845,13.707212 7.09391,6.870331 11.69233,14.605612 14.69113,24.712959 l 1.40173,4.72441 0.13533,263.67942 0.13538,263.67942 -1.08751,5.33648 c -4.46583,21.91418 -21.82436,38.78557 -43.8589,42.62809 -4.01643,0.70042 -39.87832,0.78661 -309.85395,0.74499 C 95.034685,685.16076 48.278126,685.04254 44.830594,684.41908 Z M 662.12815,650.78989 c 5.73921,-2.35564 10.31381,-6.99784 12.60016,-12.78624 0.8875,-2.24683 0.93968,-12.0884 1.06834,-201.44357 l 0.13533,-199.08137 H 354.66807 33.40416 v 197.30368 c 0,131.14099 0.17849,198.25186 0.532276,200.13123 1.54097,8.18593 8.31055,15.12252 16.289405,16.69118 1.324203,0.26037 133.934269,0.42719 305.750499,0.38467 l 303.41207,-0.0751 z m 13.66756,-489.94763 c 0.0843,-27.18651 -0.0608,-44.35846 -0.38987,-46.13868 -1.26509,-6.84351 -5.58766,-12.4279 -11.95402,-15.443697 l -3.53847,-1.676183 -32.89953,-0.149864 -32.89953,-0.149863 -0.35265,3.037007 c -2.36399,20.3595 -13.53685,37.03156 -30.66073,45.75182 -9.44625,4.81044 -16.26851,6.46024 -26.54714,6.4198 -11.13586,-0.0438 -19.89337,-2.44344 -29.42182,-8.06178 -5.69616,-3.35867 -14.60157,-11.92082 -18.32965,-17.62313 -4.91326,-7.51509 -8.39392,-17.30503 -9.03704,-25.41822 l -0.32248,-4.068237 H 354.5862 229.72962 v 2.041748 c 0,2.746119 -1.34551,9.675209 -2.67546,13.778099 -6.34871,19.58564 -23.58518,34.7413 -43.8243,38.53377 -12.24927,2.29531 -25.07284,0.43661 -36.46642,-5.28559 -17.52298,-8.80056 -28.95932,-25.58543 -31.20971,-45.8058 l -0.36721,-3.29944 -32.913977,0.149837 -32.913974,0.149843 -4.005908,1.980231 c -5.983611,2.957869 -9.441928,7.252129 -11.1636,13.862079 -0.666115,2.55739 -0.784901,9.617 -0.784901,46.64768 0,23.99883 0.157672,43.79192 0.350383,43.98463 0.19271,0.19271 144.700587,0.29113 321.128607,0.21872 l 320.77823,-0.13166 z M 178.44705,118.58545 c 8.77232,-2.2849 15.13586,-8.62598 17.40703,-17.34556 0.65922,-2.530941 0.80467,-6.955083 0.80467,-24.47555 0,-13.958121 -0.20677,-22.352367 -0.59532,-24.167926 -2.37739,-11.10861 -11.92833,-18.856998 -23.21952,-18.83728 -10.95945,0.01914 -19.66116,6.25041 -23.07757,16.525785 -0.97651,2.937006 -1.08336,4.852051 -1.281,22.957951 -0.25494,23.355045 0.0815,27.37751 2.7414,32.77896 1.98594,4.0328 5.70025,7.97327 9.7492,10.34283 4.87107,2.85068 11.71354,3.72045 17.47111,2.22079 z m 364.42687,-0.0317 c 6.50741,-1.69452 12.22924,-6.4531 15.35019,-12.766 l 1.9517,-3.94777 0.15601,-23.912929 c 0.1072,-16.426383 -0.0283,-24.652478 -0.43322,-26.275134 -2.64394,-10.598824 -12.03308,-17.878684 -23.09024,-17.902982 -7.18504,-0.01579 -11.9906,1.976301 -17.07543,7.078454 -3.44539,3.457132 -5.52491,7.234762 -6.47859,11.769 -0.37507,1.783213 -0.58509,10.458504 -0.58509,24.167927 0,17.520467 0.14545,21.944609 0.80468,24.475544 3.38517,12.99655 16.44472,20.68743 29.39999,17.31389 z"
     id="path5613"
     inkscape:connector-curvature="0"
     transform="scale(0.75000002)" />
  <path
     style="fill-opacity:1;stroke-width:0.52493441;stroke-opacity:1"
     fill="currentColor"
     stroke="currentColor"
     d="m 316.37917,588.28928 c -0.66426,-4.55998 -1.35735,-8.44255 -1.5402,-8.62792 -0.18285,-0.18537 -4.3482,-0.60893 -9.25633,-0.94125 -28.52829,-1.93155 -52.48008,-5.43797 -73.77104,-10.79968 -13.99287,-3.52382 -37.03451,-11.03835 -45.57627,-14.86371 l -2.28695,-1.02419 6.28089,-7.01444 c 7.36982,-8.23055 11.7189,-12.70929 13.43008,-13.8305 1.14221,-0.7484 1.64396,-0.67124 6.95771,1.07 12.97582,4.25199 38.87719,10.54237 53.75823,13.05568 19.48425,3.29075 33.12893,4.22289 61.94226,4.23157 25.66858,0.008 30.33208,-0.25349 47.24409,-2.64641 71.53735,-10.12197 127.59603,-38.04866 148.72599,-74.09064 4.82533,-8.23071 7.25084,-15.79005 8.23299,-25.65891 3.48457,-35.01403 -25.7745,-69.3723 -78.21882,-91.85059 -25.34546,-10.86338 -61.64957,-19.76975 -90.81365,-22.27901 -10.47455,-0.90122 -49.56177,-1.26225 -63.77953,-0.58909 -18.80279,0.89025 -29.50947,2.23199 -46.98163,5.88768 -50.75552,10.61955 -86.36406,28.22903 -112.58723,55.67774 -7.37007,7.71451 -11.10304,12.77375 -14.34468,19.44114 -5.60403,11.52634 -7.05946,17.8831 -6.82171,29.7948 l 0.15782,7.90776 -22.994915,-0.13738 -22.994918,-0.13739 -6.532641,-16.25026 c -3.592952,-8.93765 -6.53264,-16.31954 -6.53264,-16.4042 0,-0.0847 7.263779,-0.15626 16.141732,-0.1591 l 16.141732,-0.005 4.867299,-9.63477 c 2.677015,-5.29903 6.271051,-11.74398 7.986751,-14.32202 18.44002,-27.70823 56.19297,-53.27118 101.4871,-68.71806 3.90411,-1.33144 12.37291,-3.88819 18.81956,-5.68167 10.96125,-3.04946 11.73329,-3.34424 11.90798,-4.54671 0.10274,-0.70721 -0.23601,-4.20997 -0.75278,-7.78391 -0.8947,-6.18766 -0.89568,-6.53018 -0.0206,-7.17005 2.00623,-1.46698 28.72068,-5.1375 55.15248,-7.57787 22.35613,-2.06406 75.12132,-0.82331 100.28977,2.35828 78.82821,9.96482 147.16201,37.83297 185.32673,75.58063 18.8013,18.59586 29.51548,37.24666 33.77411,58.79265 l 1.45255,7.34908 26.59995,0.13604 26.59994,0.13605 v 7.8692 7.86921 h -26.49916 -26.49921 l -0.27128,1.1811 c -0.14919,0.64961 -0.87418,4.08961 -1.61113,7.64445 -0.73696,3.55483 -2.05722,8.51546 -2.93386,11.02362 -18.02919,51.58234 -87.50996,95.63783 -180.20127,114.25972 -30.29622,6.08658 -47.38657,7.71901 -99.02656,9.4588 l -9.22095,0.31066 z"
     id="path5615"
     inkscape:connector-curvature="0"
     transform="scale(0.75000002)" />
  <path
     style="fill-opacity:1;stroke-width:0.52493441;stroke-opacity:1"
     fill="currentColor"
     stroke="currentColor"
     d="m 316.34379,470.99742 c -14.12508,-1.46421 -29.93052,-10.11599 -33.57362,-18.37796 -2.37038,-5.37563 -1.73383,-12.72626 1.51042,-17.44161 3.0917,-4.49363 10.52451,-9.10467 19.46478,-12.07523 9.88734,-3.28523 12.8981,-3.66327 26.24672,-3.29556 16.23295,0.44716 21.52314,1.56251 31.20158,6.57839 5.16871,2.67869 10.31555,7.04927 11.85513,10.06709 0.54617,1.0706 1.4165,2.12176 1.93405,2.3359 0.51755,0.21414 8.08666,0.51182 16.82026,0.66151 l 15.87927,0.27216 v 5.17752 5.17751 h -16.26413 -16.26412 l -1.26651,2.49344 c -4.84354,9.53576 -18.28083,16.90804 -33.63441,18.45328 -6.55969,0.66019 -17.4012,0.6482 -23.90942,-0.0264 z"
     id="path5617"
     inkscape:connector-curvature="0"
     transform="scale(0.75000002)" />
  <path
     style="fill-opacity:1;stroke-opacity:1;stroke-width:0.3703937;stroke-miterlimit:4;stroke-dasharray:none"
     
     fill="currentColor"
     stroke="currentColor"
     d="m 68.732018,684.38046 -24.312595,-0.22902 -3.522969,-1.00969 C 25.212426,678.64674 13.355331,668.8276 6.188004,654.39895 4.2335775,650.46447 2.3961173,645.26899 1.5678508,641.33533 1.2438596,639.79662 1.1655773,573.79364 1.2499972,373.34 L 1.362002,107.38619 2.9031201,102.89367 C 6.305462,92.975489 9.6893852,87.489999 16.739272,80.464658 23.883305,73.345499 29.298218,70.045 39.336791,66.69102 l 5.403829,-1.805472 h 21.028933 c 11.565913,0 27.549845,-0.110305 35.519847,-0.245123 l 14.49093,-0.245123 0.20013,-7.271367 c 0.22463,-8.16156 0.84493,-11.843344 3.07453,-18.248841 4.31146,-12.386517 13.4731,-23.514142 24.94326,-30.2958313 16.11926,-9.53045558 36.18292,-10.3380073 53.34925,-2.1472799 12.74473,6.0810032 22.74331,16.8430702 28.15244,30.3021442 2.46533,6.13425 3.4278,11.509713 3.87744,21.655689 l 0.26319,5.938955 124.94467,0.09334 124.94468,0.09334 0.2341,-1.949262 c 0.1288,-1.072096 0.23619,-3.118497 0.23864,-4.547558 0.0219,-12.709054 3.29437,-23.195102 10.39513,-33.310329 2.73003,-3.888974 8.69694,-10.036238 12.16335,-12.530976 12.24134,-8.8099568 26.5609,-12.77477912 40.18342,-11.1260457 13.32337,1.6125238 24.55479,7.0614745 33.97761,16.4842817 11.31371,11.313706 16.83244,25.063439 16.85772,42.000328 l 0.007,4.85792 14.19781,0.245342 c 7.8088,0.134936 23.82167,0.245579 35.58414,0.245869 l 21.38636,3.71e-4 5.4298,1.850808 c 10.4471,3.560997 17.43684,8.01152 24.38865,15.528781 5.36477,5.801142 9.05898,12.292679 11.8667,20.852429 l 1.76539,5.38218 0.26232,263.9123 0.26228,263.9123 -1.19552,5.19658 c -1.40408,6.10343 -2.71336,9.8142 -5.07843,14.39339 -6.15658,11.92026 -17.31057,21.59924 -29.80717,25.86549 -6.68021,2.28055 -6.81855,2.29581 -23.75582,2.62056 -18.04288,0.34594 -543.23558,0.32794 -580.161626,-0.02 z M 662.77012,650.8597 c 4.12093,-1.96223 7.09709,-4.3394 9.2673,-7.40227 3.33357,-4.70466 3.311,-4.61613 3.61515,-14.1856 0.14922,-4.69549 0.39576,-94.8516 0.54787,-200.34692 l 0.27657,-191.80968 H 354.77193 33.066855 l 0.11341,198.86218 0.113411,198.86219 0.826405,2.4127 c 2.153546,6.28731 6.742387,11.25747 12.751332,13.81096 l 2.002226,0.85083 36.932874,0.19086 c 20.313077,0.10497 157.678477,0.23025 305.256437,0.27839 l 268.32357,0.0875 z m -134.10115,-446.2848 147.21385,-0.24716 0.2302,-33.62338 c 0.27858,-40.69489 -0.005,-56.02107 -1.09347,-59.09651 -1.94486,-5.495 -5.72819,-9.71194 -11.22811,-12.514878 l -3.57666,-1.822776 -33.20848,-0.138586 -33.20849,-0.138589 -0.62915,4.454219 c -0.77077,5.45663 -1.83636,9.71334 -3.5309,14.10501 -5.72623,14.84035 -16.30543,25.83667 -30.91719,32.13614 -7.6228,3.28636 -12.55796,4.22806 -22.11029,4.21893 -5.80124,-0.006 -7.79424,-0.15461 -11.23312,-0.84015 -13.0199,-2.59551 -23.92894,-9.39429 -33.47057,-20.85974 -6.41834,-7.71242 -10.92427,-19.10828 -11.81207,-29.87375 l -0.27549,-3.340659 -125.12751,-0.09334 -125.12752,-0.09334 -0.22885,2.707246 c -1.14948,13.598443 -6.79441,25.973213 -16.2123,35.540503 -17.63112,17.91082 -43.6262,22.17973 -66.23633,10.87731 -5.66828,-2.83348 -9.34594,-5.53178 -14.32284,-10.50867 -9.49671,-9.49671 -14.54296,-19.92803 -16.48704,-34.08105 -0.31645,-2.303725 -0.57535,-4.275944 -0.57535,-4.382712 0,-0.106763 -14.90771,-0.07752 -33.128235,0.06499 l -33.128232,0.25911 -3.702923,1.849168 c -6.059901,3.026204 -9.706267,7.277024 -11.557962,13.473904 -0.610565,2.04332 -0.668423,5.35164 -0.794793,45.44676 -0.07496,23.78366 -0.03246,43.95194 0.09444,44.81842 l 0.230735,1.57541 30.878698,0.0971 c 76.149582,0.23942 330.062112,0.25643 464.275952,0.0311 z M 178.91106,118.848 c 4.14838,-1.07526 7.43057,-3.02677 10.82716,-6.4376 3.55765,-3.57255 5.59168,-7.14449 6.52882,-11.46517 0.72151,-3.326511 1.09312,-28.442776 0.59394,-40.142714 -0.4033,-9.452733 -0.65144,-10.69207 -3.03039,-15.135166 -2.6382,-4.92729 -7.89034,-9.246603 -13.47796,-11.08414 -2.56344,-0.843011 -3.729,-1.007235 -7.31772,-1.031048 -5.01919,-0.03331 -7.22479,0.435937 -11.40929,2.427326 -7.42539,3.533721 -12.31938,10.787464 -13.09766,19.412997 -0.47522,5.266806 -0.45152,38.679146 0.0302,42.538234 0.77689,6.224081 3.3972,11.317831 7.98427,15.521051 6.02961,5.52504 14.23492,7.5045 22.36866,5.39623 z m 365.20358,-0.31532 c 6.51882,-2.05929 11.50164,-6.61249 15.04174,-13.74478 l 1.28968,-2.59829 0.20203,-18.373645 c 0.11113,-10.105502 0.0797,-21.630786 -0.0698,-25.611741 -0.26321,-7.006385 -0.30965,-7.327223 -1.45004,-10.021986 -2.88525,-6.817961 -8.44916,-11.719757 -15.85738,-13.970302 -3.49066,-1.060425 -10.66733,-0.95965 -14.20583,0.199479 -6.93978,2.273316 -13.13797,8.564442 -15.55007,15.783234 l -1.00198,2.998582 -0.0148,23.013449 c -0.0137,21.168802 0.0393,23.204461 0.66123,25.39647 1.35824,4.78737 4.25225,9.29651 7.95434,12.39368 2.54506,2.1292 7.28194,4.49257 10.11441,5.04639 1.12283,0.21954 2.37558,0.4761 2.78389,0.57012 1.74653,0.40222 7.28334,-0.19005 10.10264,-1.08066 z"
     id="path5637"
     inkscape:connector-curvature="0"
     transform="scale(0.75000002)" />
  <path
     style="fill-opacity:1;stroke-width:0.37118468;stroke-opacity:1"
     
     fill="currentColor"
     stroke="currentColor"
     d="m 316.74569,588.2635 c -1.32729,-8.66132 -1.36355,-8.80889 -2.23092,-9.08022 -0.3384,-0.10585 -4.95814,-0.53334 -10.26608,-0.94996 -37.89159,-2.97416 -60.66415,-6.88212 -87.54045,-15.02267 -14.20998,-4.30406 -31.79542,-10.60718 -31.79542,-11.39639 0,-0.48885 12.86652,-14.59595 16.27488,-17.8441 1.66022,-1.58217 3.34205,-2.87668 3.7374,-2.87668 0.39535,0 3.36202,0.82537 6.5926,1.83415 21.39125,6.67962 49.78549,12.89819 68.60398,15.02482 21.36486,2.4144 64.58805,2.81533 82.46152,0.76491 62.09057,-7.12295 114.59745,-27.50331 143.89951,-55.85407 12.9863,-12.56469 20.59659,-25.0692 23.24581,-38.19522 1.80756,-8.95602 1.87619,-16.48177 0.22461,-24.63865 -1.19013,-5.87785 -2.62298,-9.99875 -5.57869,-16.0447 -11.91851,-24.37924 -39.49089,-46.15884 -77.77644,-61.43617 -17.65886,-7.04653 -45.00222,-14.28508 -66.53718,-17.61423 -16.57547,-2.56246 -27.51901,-3.15904 -57.99527,-3.16158 -31.50874,-0.003 -46.48031,1.17311 -66.81324,5.24688 -50.0105,10.01977 -85.6706,26.27513 -111.25138,50.71303 -13.78106,13.16536 -19.30661,20.93061 -24.22689,34.04695 -2.40934,6.42277 -2.84675,9.22496 -3.0563,19.57999 l -0.1859,9.18682 H 93.968656 71.405477 l -6.204263,-15.49696 c -3.412344,-8.52333 -6.28669,-15.70575 -6.387435,-15.96094 -0.144798,-0.36678 3.120515,-0.46398 15.586439,-0.46398 12.169193,0 15.854818,-0.10593 16.142812,-0.46398 0.20526,-0.25519 2.455985,-4.47673 5.001609,-9.3812 2.545625,-4.90447 5.432641,-10.24953 6.415581,-11.87791 6.90513,-11.4393 19.33441,-24.49752 33.65429,-35.35725 15.07708,-11.43396 35.13188,-22.54901 55.1475,-30.56463 9.50563,-3.8067 18.96686,-6.95441 32.19724,-10.71189 9.03884,-2.56706 11.39127,-3.34306 12.15629,-4.01003 0.853,-0.74367 0.83342,-2.31413 -0.11664,-9.35802 -0.65551,-4.86007 -0.69139,-5.75566 -0.24832,-6.19873 1.82788,-1.82787 44.30009,-7.25996 64.67271,-8.27147 24.95892,-1.23921 69.43575,0.29229 92.23938,3.17615 51.59582,6.52506 101.51519,21.89458 139.08293,42.82182 23.77234,13.24248 42.47429,28.40335 56.41254,45.73126 9.44991,11.74807 16.90746,26.17006 20.19938,39.06326 0.61105,2.39329 2.93292,13.34322 2.93292,13.8317 0,0.0689 11.90111,0.16808 26.44691,0.22048 l 26.4469,0.0953 0.10048,7.51649 0.10048,7.51648 -26.45459,0.001 -26.45459,10e-4 -1.59728,7.47128 c -2.10154,9.82989 -3.88203,15.12878 -7.65334,22.77697 -10.07206,20.42591 -28.26416,39.65028 -53.1084,56.12192 -36.60679,24.27015 -83.68722,41.42667 -139.27777,50.75402 -19.04159,3.19493 -35.04808,4.52257 -71.9263,5.96587 -7.75776,0.30362 -15.20052,0.55272 -16.53946,0.55356 l -2.43445,10e-4 -1.19334,-7.7873 z"
     id="path5639"
     inkscape:connector-curvature="0"
     transform="scale(0.75000002)" />
  <path
     style="fill-opacity:1;stroke-width:0.37118468;stroke-opacity:1"
     
     fill="currentColor"
     stroke="currentColor"
     d="m 317.24015,470.70189 c -11.69606,-1.06254 -26.32377,-7.88233 -31.89787,-14.87153 -2.24368,-2.81329 -3.21619,-5.45234 -3.45182,-9.36698 -0.54134,-8.99381 3.89853,-14.88876 15.24502,-20.24126 3.91711,-1.84782 11.0474,-4.28999 15.09368,-5.16967 5.86372,-1.27481 25.37798,-1.06165 33.6141,0.36716 6.5191,1.13095 12.77568,3.61346 18.37962,7.29273 4.23303,2.7792 6.21587,4.6156 8.28743,7.67535 1.12095,1.65568 2.07552,2.66409 2.66096,2.81103 0.76816,0.19279 23.95594,0.92117 30.13244,0.94652 l 1.94872,0.008 v 4.8254 4.8254 h -16.2548 -16.2548 l -1.0323,2.10481 c -4.72455,9.63318 -17.82735,16.99222 -33.1931,18.64253 -3.46957,0.37264 -19.67853,0.47744 -23.27728,0.15051 z"
     id="path5641"
     inkscape:connector-curvature="0"
     transform="scale(0.75000002)" />
  <path
     style="fill-opacity:1;stroke-width:0.0028937;stroke-miterlimit:4;stroke-dasharray:none;stroke-opacity:1"
     
     fill="currentColor"
     stroke="currentColor"
     d="m 675.66628,245.52908 0.006,-7.78907 h -9.52027 -9.52026 v -0.21875 -0.21875 h 9.77996 9.77996 l -0.003,5.73243 c -10e-4,3.15283 -0.005,6.75634 -0.007,8.00781 l -0.005,2.27539 h -0.258 -0.25799 z"
     id="path5657"
     inkscape:connector-curvature="0"
     transform="scale(0.75000002)" />
  <path
     style="fill-opacity:1;stroke-width:0.0028937;stroke-miterlimit:4;stroke-dasharray:none;stroke-opacity:1"
     
     fill="currentColor"
     stroke="currentColor"
     d="m 676.18883,249.41775 c 0.003,-2.14522 0.005,-5.74873 0.005,-8.00781 v -4.10743 h 0.0469 0.0469 l -2.1e-4,0.84571 c -1.6e-4,0.66973 -0.0221,15.16046 -0.023,15.16797 -1.3e-4,0.001 -0.0184,0.002 -0.0406,0.002 h -0.0404 l 0.005,-3.90039 z"
     id="path5659"
     inkscape:connector-curvature="0"
     transform="scale(0.75000002)" />
  <path
     style="fill-opacity:1;stroke-width:0.0028937;stroke-miterlimit:4;stroke-dasharray:none;stroke-opacity:1"
     
     fill="currentColor"
     stroke="currentColor"
     d="m 675.5456,245.53298 v -7.78515 h 0.0605 0.0606 l -0.002,3.70507 c -9.4e-4,2.0378 -0.004,5.54112 -0.007,7.78516 l -0.005,4.08008 h -0.0537 -0.0537 z"
     id="path5661"
     inkscape:connector-curvature="0"
     transform="scale(0.75000002)" />
  <path
     style="fill-opacity:1;stroke-width:0.0028937;stroke-miterlimit:4;stroke-dasharray:none;stroke-opacity:1"
     
     fill="currentColor"
     stroke="currentColor"
     d="m 675.66778,245.52908 0.005,-7.78907 h -9.52083 -9.52082 v -0.21875 -0.21875 h 9.82809 9.82809 l 0.002,0.84571 0.002,0.8457 -8e-5,-0.84766 -2e-5,-0.84765 -9.83008,-0.002 -9.83008,-0.002 v -3.22266 -3.22265 h 19.0625 19.0625 v 11.23437 11.23438 h -9.24271 -9.24271 l 0.005,-4.26367 c 0.003,-2.34502 0.003,-4.26164 5.6e-4,-4.25915 -0.003,0.002 -0.006,1.12221 -0.007,2.48828 -10e-4,1.36607 -0.003,3.28268 -0.004,4.25915 l -0.002,1.77539 h -0.0398 -0.0397 l 0.004,-4.27149 c 0.002,-2.87725 0.002,-3.53707 -0.002,-2.02148 -0.003,1.2375 -0.006,3.15967 -0.007,4.27148 l -10e-4,2.02149 h -0.25802 -0.25801 z m 0.60972,-0.77491 c -0.002,-0.006 -0.004,-0.004 -0.005,0.005 -3.4e-4,0.008 0.002,0.0128 0.004,0.0103 0.003,-0.003 0.003,-0.009 6.2e-4,-0.015 z m 0.008,-4.14956 c -10e-4,-0.69681 -0.002,-0.12436 -0.002,1.27212 0,1.39649 9e-4,1.96661 0.002,1.26695 0.001,-0.69967 0.001,-1.84224 0,-2.53907 z m -0.094,1.88345 c -0.002,-0.014 -0.003,-0.003 -0.003,0.0254 0,0.0279 10e-4,0.0394 0.003,0.0254 0.002,-0.014 0.002,-0.0368 0,-0.0508 z m 2.1e-4,-3.7728 c -10e-4,-0.65025 -0.002,-0.12056 -0.002,1.1771 0,1.29765 9e-4,1.82968 0.002,1.18227 0.001,-0.64741 0.001,-1.70912 0,-2.35937 z m 0.0932,0.5936 c -0.002,-0.006 -0.004,-0.004 -0.005,0.005 -3.4e-4,0.008 10e-4,0.0128 0.004,0.0103 0.003,-0.003 0.003,-0.009 6.2e-4,-0.015 z"
     id="path5663"
     inkscape:connector-curvature="0"
     transform="scale(0.75000002)" />
  <path
     style="fill-opacity:1;stroke-width:0.03273849;stroke-miterlimit:4;stroke-dasharray:none;stroke-opacity:1"
     
     fill="currentColor"
     stroke="currentColor"
     d="m 675.60356,361.05674 c 0.0324,-21.25629 0.0589,-54.18979 0.0589,-73.18555 l 10e-6,-34.53774 0.24307,-1e-5 h 0.24307 l -0.0181,47.70761 c -0.01,26.23919 -0.0447,59.17269 -0.0772,73.18556 l -0.0592,25.47794 h -0.22472 -0.22471 z"
     id="path5665"
     inkscape:connector-curvature="0"
     transform="scale(0.75000002)" />
  <path
     style="fill-opacity:1;stroke-width:0.03273849;stroke-miterlimit:4;stroke-dasharray:none;stroke-opacity:1"
     
     fill="currentColor"
     stroke="currentColor"
     d="m 708.68986,370.95624 c -0.0321,-15.81157 -0.0848,-73.00767 -0.11701,-127.10244 l -0.0586,-98.35414 h 0.22428 0.22428 l 0.0585,76.21285 c 0.0322,41.91707 0.067,99.11317 0.0773,127.10245 l 0.0188,50.8896 -0.18458,-1e-5 h -0.18457 z"
     id="path5667"
     inkscape:connector-curvature="0"
     transform="scale(0.75000002)" />
  <path
     style="fill-opacity:1;stroke-width:0.0057874;stroke-miterlimit:4;stroke-dasharray:none;stroke-opacity:1"
     
     fill="currentColor"
     stroke="currentColor"
     d="m 676.15513,300.90238 c 0.005,-5.27012 0.014,-15.38105 0.0193,-22.46875 0.009,-12.58742 0.0104,-12.88672 0.039,-12.88672 0.0367,0 0.0369,-2.04034 -0.002,23.64844 -0.0169,11.18047 -0.0308,20.54434 -0.031,20.80859 -1.8e-4,0.34159 -0.005,0.48047 -0.0176,0.48047 -0.0127,0 -0.0148,-2.56349 -0.008,-9.58203 z"
     id="path5669"
     inkscape:connector-curvature="0"
     transform="scale(0.75000002)" />
  <path
     style="fill-opacity:1;stroke-width:0.0057874;stroke-miterlimit:4;stroke-dasharray:none;stroke-opacity:1"
     
     fill="currentColor"
     stroke="currentColor"
     d="m 676.16068,310.27495 c -0.006,-0.0937 -0.01,-3.44059 -0.008,-7.4375 l 0.004,-7.2671 0.008,7.25 0.008,7.25 0.006,-5.0625 c 0.003,-2.78438 0.007,-5.13503 0.01,-5.22368 0.002,-0.0886 0.01,-4.782 0.0167,-10.42968 0.007,-5.64769 0.0136,-10.32477 0.0149,-10.39352 10e-4,-0.0687 0.005,-3.09218 0.009,-6.71875 0.003,-3.62656 0.0103,-6.21757 0.0151,-5.75781 0.01,0.9297 0.009,1.97453 -0.0257,26.39056 -0.0176,12.49082 -0.029,17.20093 -0.0415,17.21603 -0.0104,0.0126 -0.0115,0.0249 -0.003,0.0313 0.008,0.006 0.0113,0.0778 0.007,0.16678 l -0.008,0.15625 z"
     id="path5671"
     inkscape:connector-curvature="0"
     transform="scale(0.75000002)" />
  <path
     style="fill-opacity:1;stroke-width:0.0057874;stroke-miterlimit:4;stroke-dasharray:none;stroke-opacity:1"
     
     fill="currentColor"
     stroke="currentColor"
     d="m 675.64896,288.01566 v -22.46875 h 0.25 0.25 l 0.004,15.01953 c 0.002,9.07355 0.007,12.93187 0.0118,9.7461 0.004,-2.90039 0.01,-8.6168 0.0117,-12.70313 0.004,-7.77968 0.0161,-11.88148 0.0356,-12 0.008,-0.0477 0.0128,0.0152 0.0155,0.19531 0.002,0.1461 0.009,0.46602 0.0145,0.71094 l 0.0105,0.44531 0.003,-0.70703 0.003,-0.70703 h 16.14063 16.14062 l 0.002,2.60547 c 10e-4,1.43301 0.004,2.67227 0.006,2.75391 0.002,0.0816 0.008,5.92461 0.0136,12.98437 0.005,7.05977 0.0142,15.93145 0.0198,19.71485 l 0.0101,6.8789 h -16.19762 -16.19763 l -0.003,-0.41015 -0.003,-0.41016 -0.009,0.39062 c -0.005,0.21485 -0.0118,0.38711 -0.0158,0.38282 -0.004,-0.004 -0.0108,-2.00117 -0.0154,-4.4375 l -0.008,-4.42969 -0.004,4.45703 -0.004,4.45703 h -0.24219 -0.24218 z"
     id="path5673"
     inkscape:connector-curvature="0"
     transform="scale(0.75000002)" />
  <path
     style="fill-opacity:1;stroke-width:0.0057874;stroke-miterlimit:4;stroke-dasharray:none;stroke-opacity:1"
     
     fill="currentColor"
     stroke="currentColor"
     d="m 676.15673,277.01566 c 0,-6.31211 0.002,-8.89433 0.004,-5.73828 0.002,3.15606 0.002,8.32051 0,11.47656 -0.002,3.15606 -0.004,0.57383 -0.004,-5.73828 z"
     id="path5675"
     inkscape:connector-curvature="0"
     transform="scale(0.75000002)" />
</svg>
